<?xml version="1.0" encoding="utf-8"?>
<!-- Generator: Adobe Illustrator 16.0.0, SVG Export Plug-In . SVG Version: 6.00 Build 0)  -->
<!DOCTYPE svg PUBLIC "-//W3C//DTD SVG 1.1//EN" "http://www.w3.org/Graphics/SVG/1.1/DTD/svg11.dtd">
<svg version="1.1" id="Layer_1" xmlns="http://www.w3.org/2000/svg" xmlns:xlink="http://www.w3.org/1999/xlink" x="0px" y="0px"
	 width="105.632px" height="142.918px" viewBox="0 0 105.632 142.918" enable-background="new 0 0 105.632 142.918"
	 xml:space="preserve">
<g>
	<g>
		<path d="M95.632,10v122.918H10V10H95.632 M105.632,0H0v142.918h105.632V0L105.632,0z"/>
	</g>
	<g>
		<path d="M21.408,51.551c2.96-0.455,5.959-0.572,8.949-0.555c3.643,0.07,7.52,0.643,10.452,2.982
			c2.486,1.877,3.93,4.883,4.251,7.943c0.442,3.92-0.188,8.168-2.617,11.375c-1.673,2.291-4.288,3.703-6.982,4.426
			c-4.581,1.199-9.387,0.936-14.05,0.469C21.411,69.311,21.415,60.434,21.408,51.551z M27.512,55.881
			c0,5.953-0.003,11.902,0.004,17.855c2.654,0.219,5.558,0.123,7.813-1.473c2.2-1.484,3.201-4.193,3.364-6.756
			c0.233-2.74-0.248-5.814-2.349-7.77C33.988,55.562,30.519,55.432,27.512,55.881z"/>
	</g>
	<path d="M53.364,51.197c3.18-0.512,6.508-0.127,9.484,1.117c-0.425,1.656-0.909,3.289-1.349,4.943
		c-2.268-1.023-4.842-1.551-7.308-1.07c-1.195,0.242-2.423,1.221-2.26,2.564c0.053,1.33,1.379,2.018,2.434,2.52
		c2.621,1.178,5.595,1.885,7.646,4.035c2.558,2.568,2.498,7.062,0.235,9.795c-1.657,2.023-4.256,3.018-6.793,3.328
		c-3.409,0.414-6.979-0.008-10.102-1.479c0.431-1.674,0.854-3.35,1.245-5.029c2.819,1.27,6.094,2.168,9.151,1.279
		c1.527-0.41,2.443-2.266,1.645-3.686c-0.775-1.27-2.274-1.793-3.584-2.326c-2.458-0.863-5.022-1.918-6.684-4.023
		c-2.038-2.518-1.761-6.434,0.318-8.842C48.918,52.561,51.129,51.562,53.364,51.197z"/>
	<path d="M69.511,51.939c3.855-1.514,8.291-1.17,12.086,0.375c-0.432,1.652-0.912,3.293-1.352,4.943
		c-2.264-1.02-4.832-1.551-7.297-1.072c-1.191,0.24-2.419,1.205-2.27,2.543c0.035,1.328,1.35,2.025,2.404,2.527
		c2.628,1.186,5.613,1.889,7.672,4.049c2.44,2.439,2.501,6.643,0.548,9.393c-1.548,2.189-4.194,3.318-6.779,3.686
		c-3.509,0.488-7.202,0.086-10.421-1.432c0.428-1.674,0.846-3.35,1.246-5.035c2.885,1.297,6.291,2.254,9.391,1.186
		c1.684-0.551,2.271-2.932,0.972-4.158c-2.019-1.818-4.901-2.051-7.151-3.498c-2.281-1.268-4.159-3.605-4.078-6.324
		C64.373,55.941,66.607,53.059,69.511,51.939z"/>
	<rect x="21.408" y="22" width="61.277" height="6"/>
	<rect x="21.408" y="33" width="19.558" height="6"/>
	<rect x="44.867" y="33" width="28.527" height="6"/>
	<rect x="21.007" y="89.701" width="61.277" height="6"/>
	<rect x="21.007" y="100.701" width="19.558" height="6"/>
	<rect x="44.466" y="100.701" width="28.528" height="6"/>
	<rect x="21.007" y="111.578" width="38.124" height="6"/>
	<rect x="62.222" y="111.578" width="16.243" height="6"/>
</g>
</svg>
